<svg width="29" height="29" viewBox="0 0 29 29" fill="none" xmlns="http://www.w3.org/2000/svg">
    <path id="Home" d="M27 22.4107V13.9237C27 13.1068 27 12.6983 26.8984 12.3174C26.8085 11.9807 26.6605 11.6615 26.4609 11.3736C26.2344 11.0477 25.9219 10.777 25.2922 10.24L17.7922 3.81505C16.6266 2.81612 16.0422 2.31589 15.3859 2.1262C14.8078 1.95793 14.1922 1.95793 13.6125 2.1262C12.9563 2.31589 12.375 2.81459 11.2094 3.81199L3.70781 10.24C3.07969 10.7785 2.76563 11.0477 2.54063 11.372C2.34031 11.6604 2.19182 11.9801 2.10156 12.3174C2 12.6968 2 13.1068 2 13.9237V22.4107C2 23.8365 2 24.5493 2.2375 25.1108C2.39437 25.4821 2.62442 25.8195 2.9145 26.1038C3.20458 26.388 3.54901 26.6135 3.92813 26.7675C4.50313 27 5.23125 27 6.6875 27C8.14375 27 8.87188 27 9.44688 26.7675C9.82599 26.6135 10.1704 26.388 10.4605 26.1038C10.7506 25.8195 10.9806 25.4821 11.1375 25.1108C11.375 24.5493 11.375 23.8365 11.375 22.4107V20.881C11.375 20.0696 11.7042 19.2914 12.2903 18.7176C12.8763 18.1438 13.6712 17.8215 14.5 17.8215C15.3288 17.8215 16.1237 18.1438 16.7097 18.7176C17.2958 19.2914 17.625 20.0696 17.625 20.881V22.4107C17.625 23.8365 17.625 24.5493 17.8625 25.1108C18.0194 25.4821 18.2494 25.8195 18.5395 26.1038C18.8296 26.388 19.174 26.6135 19.5531 26.7675C20.1281 27 20.8562 27 22.3125 27C23.7688 27 24.4969 27 25.0719 26.7675C25.451 26.6135 25.7954 26.388 26.0855 26.1038C26.3756 25.8195 26.6056 25.4821 26.7625 25.1108C27 24.5493 27 23.8365 27 22.4107Z" stroke-linecap="round" stroke-linejoin="round"/>
</svg>
