<svg width="29" height="29" viewBox="0 0 29 29" fill="none" xmlns="http://www.w3.org/2000/svg">
<path id="Message " d="M27 13.8056C27.0037 15.6386 26.5755 17.4467 25.75 19.0833C24.77 21.0441 23.2635 22.6933 21.3992 23.8462C19.5349 24.9992 17.3864 25.6103 15.1944 25.6111C13.3614 25.6148 11.5533 25.1866 9.91666 24.3611L2 27L4.63889 19.0833C3.81339 17.4467 3.38515 15.6386 3.38889 13.8056C3.38974 11.6136 4.00085 9.46509 5.15377 7.60078C6.3067 5.73648 7.9559 4.22998 9.91666 3.25002C11.5533 2.42453 13.3614 1.99629 15.1944 2.00002H15.8889C18.7838 2.15973 21.5181 3.38164 23.5682 5.43177C25.6184 7.4819 26.8403 10.2162 27 13.1111V13.8056Z" stroke="#222222" stroke-opacity="0.5" stroke-width="3" stroke-linecap="round" stroke-linejoin="round"/>
</svg>
