<svg width="29" height="29" viewBox="0 0 29 29" fill="none" xmlns="http://www.w3.org/2000/svg">
<path id="Profil" d="M18.6667 17.9091H10.3333C8.1232 17.9091 6.00358 18.6274 4.44078 19.9061C2.87797 21.1847 2 22.919 2 24.7273V25.8636C2 25.8636 6.34028 27 14.5 27C22.6597 27 27 25.8636 27 25.8636V24.7273C27 22.919 26.122 21.1847 24.5592 19.9061C22.9964 18.6274 20.8768 17.9091 18.6667 17.9091ZM7.55556 7.68182C7.55556 6.17491 8.2872 4.72971 9.58954 3.66417C10.8919 2.59862 12.6582 2 14.5 2C16.3418 2 18.1081 2.59862 19.4105 3.66417C20.7128 4.72971 21.4444 6.17491 21.4444 7.68182C21.4444 10.8193 18.3347 14.5 14.5 14.5C10.6653 14.5 7.55556 10.8193 7.55556 7.68182Z" stroke="#222222" stroke-opacity="0.5" stroke-width="2.83333" stroke-miterlimit="10" stroke-linecap="square"/>
</svg>
