<svg width="25" height="25" viewBox="0 0 25 25" fill="none" xmlns="http://www.w3.org/2000/svg">
<path id="Search" d="M10.6912 21.3812C13.0633 21.3809 15.3671 20.5869 17.2355 19.1255L23.1103 25L25 23.1104L19.1252 17.2359C20.5874 15.3674 21.382 13.0632 21.3824 10.6906C21.3824 4.79608 16.586 0 10.6912 0C4.79633 0 0 4.79608 0 10.6906C0 16.5851 4.79633 21.3812 10.6912 21.3812ZM10.6912 2.67265C15.1133 2.67265 18.7096 6.26871 18.7096 10.6906C18.7096 15.1125 15.1133 18.7086 10.6912 18.7086C6.26904 18.7086 2.6728 15.1125 2.6728 10.6906C2.6728 6.26871 6.26904 2.67265 10.6912 2.67265Z" fill="#222222" fill-opacity="0.5"/>
</svg>
