<svg width="60" height="40" viewBox="0 0 60 40" fill="none" xmlns="http://www.w3.org/2000/svg">
<rect x="7.5" y="30.0952" width="45" height="3.80952" rx="1.17911" fill="#F6F6F6"/>
<rect y="13.3333" width="60" height="26.6667" rx="1.17911" fill="#DFCCA1"/>
<path d="M20.0758 23V22.707C20.1717 22.707 20.2488 22.6796 20.3071 22.6248C20.3653 22.57 20.4133 22.498 20.451 22.4089C20.4887 22.3164 20.5281 22.2136 20.5692 22.1005L21.5921 19.3095H21.8696L22.985 22.1519C23.0056 22.2102 23.033 22.2924 23.0672 22.3986C23.1015 22.5048 23.1203 22.5974 23.1238 22.6762C23.182 22.6728 23.2386 22.6693 23.2934 22.6659C23.3482 22.6625 23.3962 22.6608 23.4373 22.6608V23H22.1266V22.7173C22.2328 22.7173 22.3048 22.695 22.3425 22.6505C22.3802 22.6059 22.3956 22.5477 22.3888 22.4757C22.3853 22.4038 22.3682 22.3301 22.3374 22.2547L22.2089 21.9052L21.0164 21.9257L20.9033 22.2701C20.8827 22.3284 20.8587 22.3952 20.8313 22.4706C20.8039 22.5425 20.7765 22.6076 20.7491 22.6659C20.8108 22.6625 20.8776 22.659 20.9496 22.6556C21.0249 22.6522 21.0849 22.6505 21.1295 22.6505V23H20.0758ZM21.1295 21.5968H22.0958L21.8182 20.8412C21.7771 20.7247 21.7377 20.6082 21.7 20.4917C21.6657 20.3717 21.6366 20.2621 21.6126 20.1627H21.6023C21.5818 20.2313 21.5561 20.3203 21.5252 20.43C21.4978 20.5397 21.4584 20.6647 21.407 20.8052L21.1295 21.5968ZM23.753 19.9931C23.753 19.9348 23.753 19.8715 23.753 19.8029C23.7564 19.731 23.7615 19.6573 23.7684 19.5819C23.7136 19.5853 23.6502 19.5888 23.5782 19.5922C23.5097 19.5956 23.4531 19.599 23.4086 19.6025V19.2684C23.5662 19.2684 23.6947 19.2615 23.7941 19.2478C23.8935 19.2307 23.9706 19.2101 24.0254 19.1861C24.0837 19.1621 24.1248 19.1399 24.1488 19.1193H24.3852V20.6356C24.4949 20.5328 24.6114 20.4591 24.7347 20.4146C24.8581 20.37 24.9814 20.3478 25.1048 20.3478C25.3173 20.3478 25.504 20.4009 25.6651 20.5071C25.8295 20.6133 25.958 20.7641 26.0506 20.9594C26.1431 21.1547 26.1893 21.3843 26.1893 21.6482C26.1893 21.9292 26.1345 22.1776 26.0249 22.3935C25.9152 22.6094 25.7644 22.779 25.5725 22.9023C25.3806 23.0223 25.1596 23.0822 24.9095 23.0822C24.8101 23.0822 24.6885 23.0617 24.5445 23.0206C24.404 22.9794 24.2755 22.8972 24.159 22.7738L24.0151 23H23.753V19.9931ZM24.3852 22.2187C24.3852 22.3558 24.4075 22.4637 24.452 22.5425C24.4966 22.6214 24.5531 22.6779 24.6216 22.7122C24.6936 22.743 24.7656 22.7601 24.8375 22.7636C24.9951 22.7636 25.1219 22.7173 25.2179 22.6248C25.3173 22.5323 25.3892 22.4089 25.4338 22.2547C25.4817 22.0971 25.5057 21.9275 25.5057 21.7458C25.5057 21.5608 25.4834 21.3929 25.4389 21.2421C25.3944 21.0879 25.3258 20.9663 25.2333 20.8772C25.1408 20.7847 25.0191 20.7384 24.8684 20.7384C24.7758 20.7418 24.6867 20.7658 24.6011 20.8104C24.5154 20.8549 24.4435 20.9132 24.3852 20.9851V22.2187ZM27.6551 23.0822C27.4564 23.0822 27.2936 23.0445 27.1668 22.9692C27.0435 22.8938 26.9527 22.7738 26.8944 22.6094C26.8361 22.4415 26.807 22.2221 26.807 21.9514V21.2524C26.807 21.1941 26.8087 21.129 26.8122 21.0571C26.8156 20.9851 26.819 20.9132 26.8224 20.8412C26.7676 20.8446 26.7059 20.8481 26.6374 20.8515C26.5689 20.8515 26.5123 20.8532 26.4678 20.8566V20.5277H26.5552C26.7436 20.5277 26.8893 20.5122 26.9921 20.4814C27.0983 20.4471 27.1702 20.4129 27.2079 20.3786H27.4444V21.9514C27.4444 22.1982 27.4769 22.3815 27.542 22.5014C27.6106 22.6214 27.7202 22.6813 27.871 22.6813C27.9738 22.6779 28.0749 22.6471 28.1743 22.5888C28.2771 22.5305 28.3593 22.462 28.421 22.3832V21.273C28.421 21.2044 28.4227 21.1342 28.4261 21.0622C28.4295 20.9868 28.4347 20.9132 28.4415 20.8412C28.3867 20.8446 28.3233 20.8481 28.2514 20.8515C28.1828 20.8515 28.1263 20.8532 28.0817 20.8566V20.5277H28.2154C28.373 20.5277 28.5032 20.5105 28.606 20.4763C28.7122 20.442 28.7825 20.4094 28.8168 20.3786H29.0532V22.2239C29.0532 22.2718 29.0515 22.3421 29.0481 22.4346C29.0446 22.5271 29.0395 22.6111 29.0326 22.6865C29.0909 22.6796 29.1526 22.6762 29.2177 22.6762C29.2828 22.6728 29.3359 22.6693 29.377 22.6659V23H28.4827C28.4758 22.952 28.469 22.9041 28.4621 22.8561C28.4587 22.8081 28.4552 22.7618 28.4518 22.7173C28.3456 22.8132 28.2257 22.8989 28.092 22.9743C27.9618 23.0463 27.8162 23.0822 27.6551 23.0822ZM30.9567 23.0822C30.71 23.0822 30.4907 23.0274 30.2988 22.9178C30.1069 22.8047 29.9578 22.6471 29.8516 22.4449C29.7454 22.2393 29.6922 21.9977 29.6922 21.7201C29.6922 21.4803 29.7454 21.2558 29.8516 21.0468C29.9578 20.8378 30.1069 20.6699 30.2988 20.5431C30.4941 20.4129 30.7202 20.3478 30.9772 20.3478C31.1212 20.3478 31.2599 20.3683 31.3936 20.4094C31.5272 20.4506 31.6472 20.5191 31.7534 20.615C31.8596 20.711 31.9436 20.8378 32.0052 20.9954C32.0704 21.153 32.1012 21.3449 32.0978 21.5711L30.3707 21.6019C30.3707 21.8144 30.3947 22.0028 30.4427 22.1673C30.4941 22.3284 30.5763 22.4569 30.6894 22.5528C30.8025 22.6453 30.9515 22.6916 31.1366 22.6916C31.2188 22.6916 31.3062 22.6779 31.3987 22.6505C31.4947 22.6196 31.5889 22.5751 31.6814 22.5168C31.7739 22.4552 31.8562 22.3798 31.9281 22.2907L32.1235 22.4706C32.0104 22.6351 31.8853 22.7618 31.7482 22.8509C31.6112 22.94 31.4741 23 31.337 23.0308C31.2 23.0651 31.0732 23.0822 30.9567 23.0822ZM30.3964 21.2935H31.4655C31.4621 21.1565 31.4416 21.0417 31.4039 20.9491C31.3696 20.8532 31.3182 20.7812 31.2497 20.7333C31.1811 20.6819 31.0972 20.6562 30.9978 20.6562C30.8299 20.6562 30.6945 20.7127 30.5917 20.8258C30.4924 20.9354 30.4273 21.0913 30.3964 21.2935ZM32.427 22.7276C32.5264 22.7276 32.5967 22.707 32.6378 22.6659C32.6823 22.6214 32.708 22.5597 32.7149 22.4809C32.7252 22.402 32.7303 22.313 32.7303 22.2136V19.9931C32.7303 19.9348 32.732 19.8715 32.7354 19.8029C32.7389 19.731 32.744 19.6573 32.7509 19.5819C32.6926 19.5853 32.6292 19.5888 32.5607 19.5922C32.4922 19.5956 32.4339 19.599 32.3859 19.6025V19.2684C32.5436 19.2684 32.6721 19.2615 32.7714 19.2478C32.8742 19.2307 32.953 19.2101 33.0079 19.1861C33.0661 19.1621 33.1072 19.1399 33.1312 19.1193H33.3625L33.3677 22.265C33.3677 22.3198 33.366 22.3866 33.3625 22.4654C33.3591 22.5408 33.3522 22.6145 33.342 22.6865C33.4002 22.6796 33.4602 22.6762 33.5219 22.6762C33.5835 22.6728 33.6349 22.671 33.6761 22.671V23H32.427V22.7276ZM35.2994 23.0822C35.0561 23.0822 34.8351 23.0291 34.6364 22.9229C34.4376 22.8132 34.28 22.6608 34.1635 22.4654C34.0504 22.2667 33.9939 22.0354 33.9939 21.7715C33.9939 21.494 34.0521 21.2473 34.1686 21.0314C34.2851 20.8155 34.441 20.6476 34.6364 20.5277C34.8351 20.4077 35.0527 20.3478 35.2891 20.3478C35.5324 20.3478 35.7517 20.4026 35.9471 20.5122C36.1424 20.6219 36.2966 20.7744 36.4097 20.9697C36.5262 21.165 36.5844 21.3963 36.5844 21.6636C36.5844 21.9446 36.5279 22.193 36.4148 22.4089C36.3052 22.6214 36.1527 22.7875 35.9573 22.9075C35.7655 23.024 35.5461 23.0822 35.2994 23.0822ZM35.3251 22.7687C35.4793 22.7687 35.5975 22.7207 35.6798 22.6248C35.762 22.5288 35.8186 22.4072 35.8494 22.2598C35.8837 22.1091 35.9008 21.9549 35.9008 21.7972C35.9008 21.6636 35.8888 21.5282 35.8648 21.3912C35.8443 21.2541 35.81 21.1308 35.762 21.0211C35.7141 20.908 35.6507 20.8189 35.5718 20.7538C35.493 20.6853 35.3971 20.651 35.284 20.651C35.1332 20.6544 35.0133 20.7041 34.9242 20.8001C34.8351 20.896 34.77 21.0177 34.7289 21.165C34.6912 21.3124 34.6723 21.4683 34.6723 21.6328C34.6723 21.8178 34.6946 21.9994 34.7392 22.1776C34.7837 22.3524 34.854 22.4963 34.9499 22.6094C35.0459 22.719 35.1709 22.7721 35.3251 22.7687ZM38.1175 23.0822C37.9599 23.0822 37.8125 23.0617 37.6755 23.0206C37.5384 22.9794 37.4288 22.9298 37.3465 22.8715L37.3619 23.036H37.0278L37.0021 22.1519H37.2797C37.29 22.2684 37.3311 22.3746 37.4031 22.4706C37.475 22.5631 37.5675 22.6368 37.6806 22.6916C37.7971 22.743 37.9256 22.7687 38.0661 22.7687C38.1346 22.7687 38.1998 22.7584 38.2614 22.7379C38.3265 22.7173 38.3797 22.6847 38.4208 22.6402C38.4653 22.5922 38.4876 22.5323 38.4876 22.4603C38.4876 22.3849 38.4619 22.3232 38.4105 22.2753C38.3625 22.2273 38.294 22.1827 38.2049 22.1416C38.1158 22.1005 38.0113 22.0577 37.8914 22.0131C37.7851 21.972 37.6789 21.9292 37.5727 21.8846C37.4664 21.8401 37.3688 21.787 37.2797 21.7253C37.1906 21.6602 37.1186 21.5814 37.0638 21.4888C37.009 21.3963 36.9816 21.2832 36.9816 21.1496C36.9816 21.0571 36.9987 20.9646 37.033 20.872C37.0672 20.7795 37.1221 20.6939 37.1975 20.615C37.2728 20.5328 37.3688 20.4677 37.4853 20.4197C37.6052 20.3717 37.7509 20.3478 37.9222 20.3478C38.0147 20.3478 38.1192 20.3632 38.2357 20.394C38.3522 20.4214 38.455 20.4694 38.5441 20.5379L38.539 20.3735H38.8731V21.2781H38.5955C38.5784 21.1582 38.5407 21.0519 38.4825 20.9594C38.4242 20.8635 38.3471 20.7881 38.2512 20.7333C38.1552 20.6784 38.0404 20.651 37.9068 20.651C37.7971 20.651 37.7046 20.6784 37.6292 20.7333C37.5538 20.7847 37.5161 20.8618 37.5161 20.9646C37.5161 21.0502 37.5453 21.1205 37.6035 21.1753C37.6618 21.2301 37.7406 21.2764 37.84 21.3141C37.9393 21.3518 38.0473 21.3929 38.1638 21.4374C38.3248 21.4923 38.4705 21.5574 38.6007 21.6328C38.7343 21.7081 38.8405 21.799 38.9194 21.9052C38.9982 22.0114 39.0376 22.1433 39.0376 22.301C39.0376 22.4791 38.993 22.6265 38.9039 22.743C38.8148 22.8561 38.7 22.9417 38.5596 23C38.4191 23.0548 38.2717 23.0822 38.1175 23.0822Z" fill="#C95807"/>
<rect x="7.5" y="24" width="45" height="3.81" rx="1.18" fill="#FCF2EA"/>
<rect x="7.5" y="30.1" width="45" height="3.81" rx="1.18" fill="#FCF2EA"/>
<rect x="7.5" y="13.33" width="45" height="5.33" fill="#FCF2EA"/>
</svg>
